<svg width="43" height="25" viewBox="0 0 43 25" fill="none" xmlns="http://www.w3.org/2000/svg">
<g clip-path="url(#clip0_9_190)">
<path d="M29.5849 17.7921C29.496 17.578 22.1074 3.12363 21.9878 2.926C21.5987 2.00648 20.9176 1.19675 19.9781 0.656018C17.682 -0.675229 14.7327 0.0850914 13.3873 2.35233C12.4644 3.90591 12.5367 5.76691 13.4151 7.20795C13.504 7.42205 20.5757 21.256 20.6953 21.4564C20.7842 21.6705 20.8898 21.8764 21.0122 22.0767C21.4013 22.9963 22.0824 23.806 23.0219 24.3467C25.318 25.6752 28.2673 24.9149 29.6127 22.6477C30.5356 21.0941 30.4633 19.2358 29.5849 17.7921Z" fill="#16A4AD"/>
<path d="M21.0538 8.00944C21.8628 7.15854 22.3576 6.01394 22.3576 4.75681C22.3603 2.13 20.2032 0 17.543 0C15.9057 0 14.4631 0.806983 13.593 2.03667C13.4318 2.20411 1.43713 16.8012 1.3037 16.9906C0.494796 17.8415 0 18.9861 0 20.2432C0 22.87 2.15709 25 4.81731 25C6.45459 25 7.89728 24.193 8.76734 22.9633C8.92579 22.7959 20.9204 8.19884 21.0538 8.00944Z" fill="#52C5CC"/>
<path d="M41.6963 8.00944C42.5052 7.15854 43 6.01394 43 4.75681C43 2.13 40.8429 0 38.1827 0C36.5454 0 35.1027 0.806983 34.2327 2.03667C34.0742 2.20411 22.0796 16.8012 21.9462 16.9878C21.1373 17.8387 20.6425 18.9833 20.6425 20.2404C20.6425 22.8673 22.7995 24.9973 25.4598 24.9973C27.097 24.9973 28.5397 24.1903 29.4098 22.9606C29.5682 22.7959 41.5629 8.19884 41.6963 8.00944Z" fill="#52C5CC"/>
</g>
<defs>
<clipPath id="clip0_9_190">
<rect width="43" height="25" fill="white"/>
</clipPath>
</defs>
</svg>
